<?xml version="1.0" standalone="no"?>
<!DOCTYPE svg PUBLIC "-//W3C//DTD SVG 20010904//EN"
 "http://www.w3.org/TR/2001/REC-SVG-20010904/DTD/svg10.dtd">
<svg version="1.0" xmlns="http://www.w3.org/2000/svg"
 width="264.000000pt" height="219.000000pt" viewBox="0 0 264.000000 219.000000"
 preserveAspectRatio="xMidYMid meet">

<g transform="translate(0.000000,219.000000) scale(0.100000,-0.100000)"
fill="#eeee" stroke="none">
<path d="M0 1095 l0 -1095 1320 0 1320 0 0 1095 0 1095 -1320 0 -1320 0 0
-1095z m495 1025 c220 -56 307 -194 335 -527 5 -65 10 -427 10 -805 l0 -688
95 0 95 0 0 490 0 490 38 0 37 0 250 -490 250 -490 93 0 94 0 -160 312 c-88
172 -323 630 -521 1017 -199 388 -361 706 -361 708 0 2 75 2 166 1 l165 -3
227 -442 c125 -242 230 -439 234 -436 5 2 8 202 8 444 l0 439 160 0 160 0 0
-743 c0 -466 4 -784 11 -853 28 -275 115 -395 318 -435 33 -6 64 -10 70 -8 6
2 -5 26 -25 54 -54 75 -112 201 -129 280 -29 142 -37 322 -42 1008 l-5 697
276 0 276 0 0 -29 c0 -23 -19 -48 -92 -123 -133 -135 -194 -245 -228 -408 -17
-84 -17 -85 -49 -88 -23 -2 -31 1 -31 13 0 37 34 174 58 234 32 81 125 221
186 281 25 24 46 48 46 52 0 5 -84 7 -187 6 l-188 -3 -3 -320 c-3 -362 13
-1042 28 -1185 19 -169 62 -280 157 -402 37 -49 44 -64 41 -95 l-3 -38 -65 2
c-206 8 -340 85 -411 236 -63 135 -62 124 -68 1002 l-6 800 -97 3 -98 3 0
-491 0 -491 -36 3 -37 3 -250 488 -250 487 -88 0 c-51 0 -89 -4 -89 -10 0 -5
232 -462 516 -1016 319 -621 513 -1009 507 -1015 -5 -5 -78 -8 -163 -7 l-154
3 -231 449 -230 449 -5 -449 -5 -449 -160 0 -160 0 -6 825 c-6 908 -5 896 -69
1027 -49 99 -141 163 -266 183 -61 10 -74 7 -59 -14 44 -57 94 -142 117 -197
62 -147 77 -380 80 -1234 l3 -590 -270 0 -270 0 -3 36 c-3 32 2 40 57 87 135
117 240 309 266 485 7 44 9 47 36 47 25 0 29 -4 29 -28 0 -43 -35 -173 -68
-250 -34 -81 -114 -200 -172 -257 -22 -21 -40 -43 -40 -47 0 -4 84 -8 186 -8
l187 0 -6 643 c-9 963 -19 1043 -164 1245 -43 59 -53 81 -53 113 l0 39 63 0
c35 0 99 -9 142 -20z"/>
</g>
</svg>
